<svg width="48" height="48" viewBox="0 0 48 48" fill="none" xmlns="http://www.w3.org/2000/svg">
<circle cx="24" cy="24" r="24" fill="#006B3F"/>
<path d="M35.4676 12.5506C34.7577 11.8407 33.6109 11.8407 32.901 12.5506L24 21.4334L15.099 12.5324C14.3891 11.8225 13.2423 11.8225 12.5324 12.5324C11.8225 13.2423 11.8225 14.3891 12.5324 15.099L21.4334 24L12.5324 32.901C11.8225 33.6109 11.8225 34.7577 12.5324 35.4676C13.2423 36.1775 14.3891 36.1775 15.099 35.4676L24 26.5666L32.901 35.4676C33.6109 36.1775 34.7577 36.1775 35.4676 35.4676C36.1775 34.7577 36.1775 33.6109 35.4676 32.901L26.5666 24L35.4676 15.099C36.1593 14.4073 36.1593 13.2423 35.4676 12.5506Z" fill="white"/>
</svg>
