<svg width="132" height="248" viewBox="0 0 132 248" fill="none" xmlns="http://www.w3.org/2000/svg">
<path d="M62.6869 19.8119C65.5697 27.3392 61.8861 35.8275 54.3588 38.7103C51.3158 39.8314 48.2729 39.9915 45.39 39.1908C44.5893 39.0306 43.9486 38.7103 43.1479 38.39C39.7846 36.9486 36.9018 34.0658 35.4604 30.3822C33.3784 24.9369 34.6596 19.0111 38.5033 15.0072C39.144 14.3666 39.7846 13.726 40.5854 13.2455C41.5463 12.6049 42.6674 11.9643 43.7885 11.4838C44.1088 11.3236 44.4291 11.3236 44.5893 11.1635C46.9916 10.3627 49.5541 10.2025 51.9564 10.8432C56.7611 11.8041 60.765 15.0072 62.6869 19.8119Z" fill="#FFACEA"/>
<path d="M50.8353 0.272952C48.7533 0.913575 48.433 3.63623 46.5111 4.75732C44.1088 6.35887 41.0658 4.59716 38.5033 5.23778C36.4213 5.71825 34.4994 8.12059 35.4604 10.0425C35.6205 10.3628 35.7807 10.5229 35.9408 10.8432C36.101 11.8042 34.9799 12.4448 34.019 12.605C30.976 13.5659 28.0932 15.1674 26.812 18.0503C25.5307 20.9331 26.812 24.937 29.8549 25.5776C30.1752 25.5776 30.4955 25.7377 30.8158 25.8979C31.6166 26.5385 31.1362 27.6596 30.8158 28.6205C29.8549 30.8627 29.5346 33.4252 30.4955 35.5072C31.6166 37.5893 34.4994 38.7104 36.4213 37.4291C36.5815 37.269 36.7416 37.1088 36.9018 37.1088C37.3822 36.7885 38.0229 36.4682 38.6635 36.4682C38.8236 36.4682 38.9838 36.4682 39.3041 36.4682C39.7846 36.7885 40.1049 37.1088 40.5854 37.269C41.8666 38.5502 42.8275 40.9525 44.5893 40.9525C45.7103 40.9525 46.6713 39.9916 46.9916 38.8705C47.3119 37.7494 47.1518 36.6283 46.9916 35.3471C46.6713 33.7455 46.351 31.8237 44.9096 30.8627C44.7494 30.8627 44.7494 30.7026 44.5893 30.7026L46.8314 24.1362L47.6322 24.937C47.6322 24.937 47.6322 25.0971 47.7924 24.937L47.9525 25.0971C48.433 25.5776 49.2338 25.7377 49.8744 25.4174C50.8353 24.937 51.1556 23.8159 50.6752 23.0151L48.1127 18.5307L47.9525 18.2104C47.3119 16.769 48.1127 15.0073 49.7142 14.3667C51.3158 13.726 53.558 13.2456 54.8392 11.8042C54.9994 11.644 54.9994 11.644 54.9994 11.8042C59.9642 8.60106 57.5619 -1.80907 50.8353 0.272952Z" fill="#242625"/>
<path d="M54.9994 11.8042C54.8393 11.9644 54.8393 11.9644 54.9994 11.8042C54.6791 12.2847 54.8393 11.9644 54.9994 11.8042Z" fill="#242625"/>
<path d="M48.2729 26.0581C49.0737 27.98 48.1128 30.2222 46.1909 30.8628C44.269 31.6636 42.0269 30.7026 41.3862 28.7808C40.5855 26.8589 41.5464 24.6167 43.4683 23.9761C45.3901 23.1753 47.4722 24.1362 48.2729 26.0581Z" fill="#FFACEA"/>
<path d="M115.825 29.7841C109.503 33.5094 101.375 31.4774 97.6495 25.1556C93.8112 18.8338 95.8432 10.7057 102.165 6.98033C108.487 3.25497 116.615 5.28699 120.34 11.6088C124.066 17.9306 122.147 25.9458 115.825 29.7841ZM102.729 7.99634C96.9721 11.383 95.1659 18.8338 98.5526 24.5911C101.939 30.3485 109.39 32.1547 115.147 28.7681C120.905 25.3814 122.711 17.9306 119.324 12.1733C115.938 6.41589 108.487 4.60965 102.729 7.99634Z" fill="#242625"/>
<path d="M115.987 28.9069L114.921 29.5441L130.445 55.5115L131.51 54.8743L115.987 28.9069Z" fill="#242625"/>
<path d="M102.955 25.3812C100.02 22.6719 99.3428 17.9305 101.375 14.4309L102.391 14.9954C100.585 17.9305 101.262 22.1074 103.745 24.3652L102.955 25.3812Z" fill="#242625"/>
<path d="M128.017 35.7673C126.662 35.5415 125.42 36.2188 124.63 37.3477L105.665 65.5702L68.9754 51.5718C68.9754 51.5718 67.6207 53.6038 67.7336 53.9425L63.4438 49.2011L58.9282 70.7631L103.633 81.6005C107.245 82.5036 110.858 80.6974 112.551 77.4236L130.726 40.8473C131.742 38.7024 130.387 36.1059 128.017 35.7673Z" fill="#FFACEA"/>
<path d="M24.2711 59.3611L7.33764 86.3417L1.01581 96.5018C-0.790422 99.6627 -0.113084 103.727 2.70916 106.21L33.1894 133.417C33.8667 133.981 34.657 134.32 35.5601 134.32C36.9148 134.32 38.1565 133.53 38.8339 132.175C39.3983 130.933 39.1726 129.466 38.2694 128.45L17.6106 105.081C16.143 103.388 16.0302 101.017 17.3848 99.2112L20.7715 94.9213L42.8979 66.2473L31.2703 54.3939L24.2711 59.3611Z" fill="#FFACEA"/>
<path d="M30.48 238.969C30.3671 241.678 30.1414 244.387 29.9156 247.097C30.1414 243.936 30.3671 240.775 30.5929 237.501C30.7058 235.131 30.8187 232.76 30.9316 230.389H44.0268C43.4624 233.324 42.8979 236.372 42.3335 239.307C41.6561 239.195 40.8659 239.082 40.1886 238.969H30.48Z" fill="#FFACEA"/>
<path d="M48.5424 244.162L41.769 242.243L48.5424 244.162C48.6553 244.275 48.6553 244.388 48.7682 244.613C48.8811 244.952 48.994 245.291 48.994 245.629C48.994 245.291 48.8811 244.952 48.7682 244.613C48.7682 244.388 48.6553 244.275 48.5424 244.162Z" fill="#FFACEA"/>
<path d="M48.2037 247.436C48.4295 247.21 48.6553 246.871 48.7682 246.532C48.7682 246.871 48.5424 247.21 48.2037 247.436C48.0909 247.548 47.978 247.661 47.7522 247.774C47.6393 247.887 47.5264 247.887 47.4135 248C47.5264 248 47.5264 247.887 47.7522 247.774C47.978 247.661 48.0909 247.548 48.2037 247.436Z" fill="#FFACEA"/>
<path d="M31.496 181.282C30.9316 170.445 30.1414 159.494 29.9156 148.657C29.8027 143.238 29.6898 141.658 29.5769 137.707L57.6865 131.272L57.2349 132.062L56.7833 147.415H56.6704C56.6704 147.754 56.6704 148.093 56.5576 148.431C54.7513 175.863 49.7842 203.409 44.4784 230.389H44.0268H30.9316H30.0285C30.2542 224.745 31.6089 209.279 31.6089 203.634C31.7218 196.184 31.7218 188.733 31.6089 181.282H31.496Z" fill="#079D56"/>
<path d="M54.5256 237.501C54.6385 235.131 54.7514 232.76 54.8643 230.389H67.9595C67.395 233.324 66.8306 236.372 66.2661 239.307C65.5888 239.195 64.7986 239.082 64.1212 238.969H54.4127C54.2998 241.678 54.074 244.387 53.8483 247.097C54.074 243.823 54.2998 240.662 54.5256 237.501Z" fill="#FFACEA"/>
<path d="M72.475 244.162L65.7017 242.243L72.475 244.162C72.5879 244.275 72.5879 244.388 72.7008 244.613C72.8137 244.952 72.9266 245.291 72.9266 245.629C72.9266 245.291 72.8137 244.952 72.7008 244.613C72.7008 244.388 72.5879 244.275 72.475 244.162Z" fill="#FFACEA"/>
<path d="M72.1363 247.436C72.3621 247.21 72.5879 246.871 72.7008 246.532C72.5879 246.871 72.475 247.21 72.1363 247.436C72.0234 247.548 71.9105 247.661 71.6847 247.774C71.5718 247.887 71.459 247.887 71.3461 248C71.459 247.887 71.459 247.887 71.6847 247.774C71.9105 247.661 72.0234 247.548 72.1363 247.436Z" fill="#FFACEA"/>
<path d="M82.8609 138.61C83.0867 136.352 83.0867 133.304 82.0707 132.401C81.8449 131.159 81.6191 129.917 81.3934 128.788C78.684 117.161 75.8618 116.822 73.4911 121.225C67.6208 111.742 69.9915 123.37 70.5559 129.353C70.3302 130.256 69.9915 131.272 69.7657 132.288C69.427 131.949 68.9755 131.498 68.6368 131.272C68.5239 131.159 68.411 131.159 68.2982 131.046C68.1853 131.046 68.0724 130.933 67.9595 130.933C66.6048 130.369 65.2501 129.805 63.7826 129.24C63.8955 129.24 62.0892 128.788 61.9763 128.788C60.9603 128.563 59.8314 128.45 58.8154 128.337C57.4607 128.224 56.1061 128.111 54.7514 128.111C54.8643 134.885 54.9772 141.658 55.0901 148.544C55.2029 151.479 55.2029 154.302 55.2029 157.237L55.3158 181.169H55.4287C55.5416 188.62 55.5416 196.071 55.4287 203.522C55.3158 209.166 53.9612 224.632 53.8483 230.276H54.7514H67.8466H68.5239C68.6368 230.389 85.6832 173.832 82.8609 138.61Z" fill="#00D38D"/>
<path d="M60.0572 32.9451L61.299 50.7816L47.8651 51.6848L46.962 38.3638L60.0572 32.9451Z" fill="#FFACEA"/>
<path d="M30.0285 137.932L40.3015 149.447L55.6545 161.414L61.9763 136.126L30.0285 137.932Z" fill="#00D38D"/>
<path d="M48.994 245.516C48.994 245.178 48.8811 244.839 48.7682 244.5C48.6553 244.388 48.6553 244.275 48.5424 244.049L41.769 242.13C41.9948 241.114 42.1077 240.211 42.3335 239.195C41.6561 239.082 40.8659 238.969 40.1886 238.856H30.4801C30.3672 241.227 30.1414 243.597 30.0285 245.968H48.994C48.994 245.968 48.994 245.742 48.994 245.516Z" fill="#242625"/>
<path d="M72.9266 245.516C72.9266 245.178 72.8137 244.839 72.7008 244.5C72.5879 244.388 72.5879 244.275 72.475 244.049L65.7017 242.13C65.9274 241.114 66.0403 240.211 66.2661 239.195C65.5888 239.082 64.7985 238.969 64.1212 238.856H54.4127C54.2998 241.227 54.074 243.597 53.9611 245.968H72.9266C72.9266 245.968 72.9266 245.742 72.9266 245.516Z" fill="#242625"/>
<path d="M29.0125 77.3106V131.272L29.464 138.271L64.4598 106.097L63.218 60.1514L29.8027 70.3114C29.3511 72.5692 29.0125 74.827 29.0125 77.3106Z" fill="#E4E9FF"/>
<path d="M80.716 76.4075L80.3773 72.795C79.3613 62.2962 69.8786 49.4268 58.8154 47.9592C45.833 46.153 32.7378 58.5709 29.9156 70.3114C29.3511 72.5692 29.1254 74.827 29.1254 77.1977V138.61L87.1507 134.659L80.716 76.4075Z" fill="#079D56"/>
<path d="M40.0757 98.3081L54.074 48.298C45.9459 48.298 38.1565 50.4429 31.3831 54.394L24.384 59.3612C21.1102 62.1834 18.175 65.5701 15.8044 69.4084L9.70831 79.1169L40.0757 98.3081Z" fill="#079D56"/>
<path d="M95.5045 59.1355C95.5045 59.2484 69.2012 48.8626 65.4759 48.5239C61.6376 48.1852 57.9123 48.0723 53.9611 48.2981C50.5744 55.8617 50.9131 62.0707 50.9131 70.1987L61.6376 72.4565L88.3925 78.6655C88.5054 78.6655 95.5045 59.1355 95.5045 59.1355Z" fill="#079D56"/>
</svg>
