<svg width="87" height="25" viewBox="0 0 87 25" fill="none" xmlns="http://www.w3.org/2000/svg">
<path d="M66.0611 14.3199C67.3542 13.3138 68.1264 11.6281 68.1264 9.80998C68.1264 8.10731 67.5422 6.7012 66.3396 5.50903C65.1561 4.33677 63.7022 3.74268 62.017 3.74268H54.9302C54.2063 3.74268 53.6171 4.35568 53.6171 5.10799V20.4728C53.6171 20.6061 53.7257 20.7136 53.8604 20.7136H57.9628C58.0976 20.7136 58.2062 20.6061 58.2062 20.4728V8.04562H61.8923C62.8485 8.04562 63.5494 8.84272 63.5584 9.94034C63.5634 10.5215 63.3412 11.0668 62.932 11.4748C62.5388 11.8669 62.021 12.0829 61.473 12.0829H59.8883C59.7958 12.0829 59.7134 12.1306 59.6691 12.2102C59.6239 12.2898 59.6259 12.3844 59.6742 12.462L64.8867 20.5982C64.9309 20.6698 65.0093 20.7136 65.0948 20.7136H69.5371C69.7301 20.7136 69.8468 20.5017 69.7412 20.3414L65.9133 14.4334L66.0611 14.3199Z" fill="#006B3F"/>
<path d="M76.9546 12.3545L72.7225 3.88301C72.6822 3.79743 72.5948 3.7417 72.4992 3.7417H67.9564C67.7744 3.7417 67.6558 3.92978 67.7362 4.09099L75.7369 19.9971C75.9672 20.434 76.4368 20.7106 76.9556 20.7136C77.4694 20.7216 77.9339 20.4509 78.1803 19.9971L86.2222 4.09198C86.3027 3.93077 86.184 3.7417 86.002 3.7417H81.4069C81.3114 3.7417 81.2239 3.79643 81.1837 3.88301L76.9546 12.3545Z" fill="#006B3F"/>
<path d="M49.9952 3.85214C49.4623 3.6362 48.9525 3.73671 48.4709 4.15864L41.1871 11.7405L33.9435 4.19944C33.4508 3.77651 32.9289 3.63819 32.395 3.84617C31.843 4.06212 31.4981 4.56466 31.4981 5.15377V20.4748C31.4981 20.6071 31.6067 20.7146 31.7414 20.7146H35.8227C35.9575 20.7146 36.0661 20.6071 36.0661 20.4748V12.9844L40.262 17.2665C40.7597 17.768 41.6174 17.7641 42.1071 17.2705L46.306 12.9844V20.4748C46.306 20.6071 46.4146 20.7146 46.5494 20.7146H50.6307C50.7654 20.7146 50.874 20.6071 50.874 20.4748V5.15377C50.875 4.57063 50.5372 4.07207 49.9952 3.85214Z" fill="#006B3F"/>
<path d="M22.2285 0.769242L10.7036 12.1694L15.1368 16.557C15.2303 16.6495 15.2836 16.7759 15.2836 16.9073V20.0051C15.2836 20.3962 14.9628 20.7136 14.5677 20.7136H6.11749L6.11548 22.682C6.11548 23.4672 6.75799 24.103 7.55133 24.103H23.2451C24.0384 24.103 24.681 23.4672 24.681 22.682V1.77134C24.6769 0.506528 23.1325 -0.124385 22.2285 0.769242Z" fill="url(#paint0_linear_15:4569)"/>
<path d="M6.26725 16.5589L10.7045 12.1694L2.64546 4.19445C1.66912 3.22818 0 3.91283 0 5.27914V19.1801C0 20.027 0.693792 20.7136 1.54947 20.7136H6.11643L6.11945 16.9082C6.12045 16.7779 6.17274 16.6515 6.26725 16.5589Z" fill="url(#paint1_linear_15:4569)"/>
<path d="M15.2836 20.0051V16.9072C15.2836 16.7759 15.2313 16.6495 15.1368 16.557L10.7035 12.1694L6.26627 16.559C6.17276 16.6515 6.11947 16.7779 6.11947 16.9092L6.11646 20.7146H14.5666C14.9628 20.7136 15.2836 20.3962 15.2836 20.0051Z" fill="url(#paint2_linear_15:4569)"/>
<defs>
<linearGradient id="paint0_linear_15:4569" x1="15.3979" y1="0.537098" x2="15.3979" y2="24.0321" gradientUnits="userSpaceOnUse">
<stop stop-color="#FFB81A"/>
<stop offset="1" stop-color="#FF8B22"/>
</linearGradient>
<linearGradient id="paint1_linear_15:4569" x1="5.35199" y1="3.8535" x2="5.35199" y2="20.583" gradientUnits="userSpaceOnUse">
<stop stop-color="#82EB5C"/>
<stop offset="1" stop-color="#00D38D"/>
</linearGradient>
<linearGradient id="paint2_linear_15:4569" x1="10.7004" y1="20.2975" x2="10.7004" y2="12.2069" gradientUnits="userSpaceOnUse">
<stop offset="0.00158253" stop-color="#079D56"/>
<stop offset="1" stop-color="#006B3F"/>
</linearGradient>
</defs>
</svg>
